<?xml version="1.0" encoding="UTF-8"?>
<svg width="114px" height="130px" viewBox="0 0 114 130" version="1.1" xmlns="http://www.w3.org/2000/svg" xmlns:xlink="http://www.w3.org/1999/xlink">
    <!-- Generator: Sketch 48.2 (47327) - http://www.bohemiancoding.com/sketch -->
    <title>trash</title>
    <desc>Created with Sketch.</desc>
    <defs></defs>
    <g id="Symbols" stroke="none" stroke-width="1" fill="none" fill-rule="evenodd">
        <g id="trash" fill="#FFFFFF">
            <path d="M113.918571,27.698125 C113.527714,21.32 108.2715,16.258125 101.785714,16.258125 L89.5714286,16.258125 L89.5714286,12.195625 L89.5714286,12.1875 C89.5714286,5.4559375 84.0994286,0 77.3571429,0 L36.6428571,0 C29.8965,0 24.4285714,5.4559375 24.4285714,12.1875 L24.4285714,12.1915625 L24.4285714,16.2540625 L12.2142857,16.2540625 C5.72035714,16.2540625 0.468214286,21.3159375 0.0773571429,27.6940625 L0,27.6940625 L0,32.5 L0,36.5625 C0,41.0475 3.648,44.6875 8.14285714,44.6875 L8.14285714,113.75 C8.14285714,122.724063 15.4347857,130 24.4285714,130 L89.5714286,130 C98.5652143,130 105.857143,122.724063 105.857143,113.75 L105.857143,44.6875 C110.352,44.6875 114,41.0475 114,36.5625 L114,32.5 L114,27.698125 L113.918571,27.698125 Z M32.5714286,12.1915625 C32.5714286,9.945 34.3913571,8.1290625 36.6428571,8.1290625 L77.3571429,8.1290625 C79.6086429,8.1290625 81.4285714,9.945 81.4285714,12.1915625 L81.4285714,16.2540625 L32.5714286,16.2540625 L32.5714286,12.1915625 Z M97.7142857,113.754063 C97.7142857,118.230938 94.0581429,121.879063 89.5714286,121.879063 L24.4285714,121.879063 C19.9377857,121.879063 16.2857143,118.230938 16.2857143,113.754063 L16.2857143,44.6915625 L97.7142857,44.6915625 L97.7142857,113.754063 Z M105.857143,32.5 L105.857143,36.5625 L8.14285714,36.5625 L8.14285714,32.5 L8.14285714,28.4415625 C8.14285714,26.195 9.96278571,24.3790625 12.2142857,24.3790625 L101.785714,24.3790625 C104.037214,24.3790625 105.857143,26.195 105.857143,28.4415625 L105.857143,32.5 Z" id="Shape"></path>
            <path d="M28,114 L36,114 C38.212,114 40,112.1822 40,109.933333 L40,57.0666667 C40,54.8178 38.212,53 36,53 L28,53 C25.788,53 24,54.8178 24,57.0666667 L24,109.933333 C24,112.1822 25.788,114 28,114 Z M28,57.0626 L36,57.0626 L36,109.929267 L28,109.929267 L28,57.0626 Z" id="Shape"></path>
            <path d="M53,114 L61,114 C63.212,114 65,112.1822 65,109.933333 L65,57.0666667 C65,54.8178 63.212,53 61,53 L53,53 C50.788,53 49,54.8178 49,57.0666667 L49,109.933333 C49,112.1822 50.788,114 53,114 Z M53,57.0626 L61,57.0626 L61,109.929267 L53,109.929267 L53,57.0626 Z" id="Shape"></path>
            <path d="M77,114 L85,114 C87.212,114 89,112.1822 89,109.933333 L89,57.0666667 C89,54.8178 87.212,53 85,53 L77,53 C74.788,53 73,54.8178 73,57.0666667 L73,109.933333 C73,112.1822 74.788,114 77,114 Z M77,57.0626 L85,57.0626 L85,109.929267 L77,109.929267 L77,57.0626 Z" id="Shape"></path>
        </g>
    </g>
</svg>