<?xml version="1.0" encoding="UTF-8"?>
<svg width="84px" height="120px" viewBox="0 0 84 120" version="1.1" xmlns="http://www.w3.org/2000/svg" xmlns:xlink="http://www.w3.org/1999/xlink">
    <!-- Generator: Sketch 48.2 (47327) - http://www.bohemiancoding.com/sketch -->
    <title>unlocked</title>
    <desc>Created with Sketch.</desc>
    <defs></defs>
    <g id="Page-1" stroke="none" stroke-width="1" fill="none" fill-rule="evenodd">
        <g id="unlocked" fill="#00000044">
            <path d="M8.36369863,119.783333 L74.7413242,119.783333 C79.3253425,119.783333 83.0392694,116.070548 83.0392694,111.48653 L83.0392694,70 C83.0392694,65.4157534 79.3253425,61.7027397 74.7413242,61.7027397 L24.9582192,61.7027397 L24.9578767,27.2651848 C24.9578767,18.0969199 32.3836758,10.6704359 41.5521689,10.6704359 C50.7206621,10.6704359 58.1469178,18.0969199 58.1469178,27.2651848 L58.1469178,28.3019428 C58.1469178,31.1644999 60.4702055,33.4880158 63.3320776,33.4880158 C66.1944064,33.4880158 68.5186073,31.1644999 68.5186073,28.3019428 L68.5186073,27.2651848 C68.5186073,12.3720341 56.4450913,0.299203049 41.5523973,0.299203049 C26.6574201,0.299203049 14.5864155,12.3720341 14.5864155,27.2651848 L14.586758,61.7027397 L8.36392694,61.7027397 C3.77968037,61.7027397 0.0664383562,65.4157534 0.0664383562,70 L0.0664383562,111.48653 C0.0662100457,116.070548 3.77945205,119.783333 8.36369863,119.783333 Z M33.2552511,84.5203196 C33.2552511,79.9363014 36.9682648,76.2232877 41.5525114,76.2232877 C46.136758,76.2232877 49.8495434,79.9363014 49.8495434,84.5203196 C49.8495434,87.4454338 48.3349315,90.0178082 46.0538813,91.490411 C46.0538813,91.490411 46.8643836,96.386758 47.7757991,102.152283 C47.7757991,103.873288 46.3860731,105.263014 44.6641553,105.263014 L38.4408676,105.263014 C36.7191781,105.263014 35.3296804,103.873288 35.3296804,102.152283 L37.0515982,91.490411 C34.7703196,90.0178082 33.2552511,87.4452055 33.2552511,84.5203196 Z" id="Shape"></path>
        </g>
    </g>
</svg>